<mxfile host="app.diagrams.net" agent="Mozilla/5.0 (Windows NT 10.0; Win64; x64) AppleWebKit/537.36 (KHTML, like Gecko) Chrome/130.0.0.0 Safari/537.36 Edg/130.0.0.0" version="24.8.4">
  <diagram name="Page-1" id="tNMz7S3dV9LzRmgL1s44">
    <mxGraphModel dx="910" dy="372" grid="1" gridSize="10" guides="1" tooltips="1" connect="1" arrows="1" fold="1" page="1" pageScale="1" pageWidth="850" pageHeight="1100" math="0" shadow="0">
      <root>
        <mxCell id="0" />
        <mxCell id="1" parent="0" />
        <mxCell id="hfkEIv0AfQCTe4QbgtVN-5" value="Ride Service" style="shape=module;align=left;spacingLeft=20;align=center;verticalAlign=top;whiteSpace=wrap;html=1;" vertex="1" parent="1">
          <mxGeometry x="80" y="160" width="160" height="90" as="geometry" />
        </mxCell>
        <mxCell id="hfkEIv0AfQCTe4QbgtVN-6" value="Publish Event&amp;nbsp;&lt;div&gt;- Ridecompletion&amp;nbsp;&lt;/div&gt;" style="text;html=1;align=center;verticalAlign=middle;whiteSpace=wrap;rounded=0;" vertex="1" parent="1">
          <mxGeometry x="100" y="190" width="120" height="50" as="geometry" />
        </mxCell>
        <mxCell id="hfkEIv0AfQCTe4QbgtVN-7" value="" style="shape=cylinder3;whiteSpace=wrap;html=1;boundedLbl=1;backgroundOutline=1;size=15;rotation=90;" vertex="1" parent="1">
          <mxGeometry x="395" y="135" width="60" height="140" as="geometry" />
        </mxCell>
        <mxCell id="hfkEIv0AfQCTe4QbgtVN-8" value="Event Bus" style="text;html=1;align=center;verticalAlign=middle;whiteSpace=wrap;rounded=0;" vertex="1" parent="1">
          <mxGeometry x="390" y="190" width="60" height="30" as="geometry" />
        </mxCell>
        <mxCell id="hfkEIv0AfQCTe4QbgtVN-10" style="edgeStyle=orthogonalEdgeStyle;rounded=0;orthogonalLoop=1;jettySize=auto;html=1;exitX=1;exitY=0.5;exitDx=0;exitDy=0;entryX=0.5;entryY=1;entryDx=0;entryDy=0;entryPerimeter=0;" edge="1" parent="1" source="hfkEIv0AfQCTe4QbgtVN-5" target="hfkEIv0AfQCTe4QbgtVN-7">
          <mxGeometry relative="1" as="geometry" />
        </mxCell>
        <mxCell id="hfkEIv0AfQCTe4QbgtVN-12" value="Ride Experience&lt;div&gt;&lt;br&gt;&lt;/div&gt;&lt;div&gt;&lt;br&gt;&lt;/div&gt;" style="shape=module;align=left;spacingLeft=20;align=center;verticalAlign=top;whiteSpace=wrap;html=1;" vertex="1" parent="1">
          <mxGeometry x="550" y="160" width="160" height="90" as="geometry" />
        </mxCell>
        <mxCell id="hfkEIv0AfQCTe4QbgtVN-13" value="Consumer Event&lt;div&gt;-RideCompletion&lt;/div&gt;" style="text;html=1;align=center;verticalAlign=middle;whiteSpace=wrap;rounded=0;" vertex="1" parent="1">
          <mxGeometry x="580" y="195" width="100" height="40" as="geometry" />
        </mxCell>
        <mxCell id="hfkEIv0AfQCTe4QbgtVN-14" style="edgeStyle=orthogonalEdgeStyle;rounded=0;orthogonalLoop=1;jettySize=auto;html=1;exitX=0.5;exitY=0;exitDx=0;exitDy=0;exitPerimeter=0;entryX=0;entryY=0.5;entryDx=10;entryDy=0;entryPerimeter=0;" edge="1" parent="1" source="hfkEIv0AfQCTe4QbgtVN-7" target="hfkEIv0AfQCTe4QbgtVN-12">
          <mxGeometry relative="1" as="geometry" />
        </mxCell>
      </root>
    </mxGraphModel>
  </diagram>
</mxfile>
